<?xml version="1.0" standalone="no"?><!DOCTYPE svg PUBLIC "-//W3C//DTD SVG 1.1//EN" "http://www.w3.org/Graphics/SVG/1.1/DTD/svg11.dtd"><svg t="1623495548164" class="icon" viewBox="0 0 1024 1024" version="1.1" xmlns="http://www.w3.org/2000/svg" p-id="19499" xmlns:xlink="http://www.w3.org/1999/xlink" width="200" height="200"><defs><style type="text/css"></style></defs><path d="M896 160v-1.6c0-0.3 0-0.5-0.1-0.7 0-0.3 0-0.5-0.1-0.8 0-0.3-0.1-0.6-0.1-0.9 0-0.2 0-0.4-0.1-0.6 0-0.3-0.1-0.7-0.2-1 0-0.2-0.1-0.4-0.1-0.5-0.1-0.3-0.1-0.7-0.2-1 0-0.2-0.1-0.3-0.1-0.5-0.1-0.3-0.2-0.7-0.3-1-0.1-0.2-0.1-0.4-0.2-0.5l-0.3-0.9c-0.1-0.2-0.1-0.4-0.2-0.6-0.1-0.3-0.2-0.5-0.3-0.8-0.1-0.2-0.2-0.5-0.3-0.7-0.1-0.2-0.2-0.5-0.3-0.7-0.1-0.3-0.2-0.5-0.3-0.8l-0.3-0.6c-0.1-0.3-0.3-0.6-0.4-0.8-0.1-0.2-0.2-0.3-0.3-0.5-0.2-0.3-0.3-0.6-0.5-0.9-0.1-0.1-0.2-0.3-0.3-0.4l-0.6-0.9c-0.1-0.1-0.2-0.3-0.3-0.4-0.2-0.3-0.4-0.6-0.6-0.8-0.1-0.2-0.2-0.3-0.4-0.5s-0.4-0.5-0.6-0.7c-0.2-0.2-0.4-0.4-0.5-0.6-0.2-0.2-0.3-0.4-0.5-0.6-0.7-0.8-1.5-1.5-2.2-2.2-0.2-0.2-0.4-0.3-0.6-0.5-0.2-0.2-0.4-0.4-0.6-0.5-0.2-0.2-0.5-0.4-0.7-0.6-0.2-0.1-0.3-0.3-0.5-0.4-0.3-0.2-0.5-0.4-0.8-0.6-0.1-0.1-0.3-0.2-0.4-0.3l-0.9-0.6c-0.1-0.1-0.3-0.2-0.4-0.3-0.3-0.2-0.6-0.3-0.9-0.5-0.2-0.1-0.3-0.2-0.5-0.3-0.3-0.1-0.6-0.3-0.8-0.4l-0.6-0.3c-0.3-0.1-0.5-0.2-0.8-0.3-0.2-0.1-0.5-0.2-0.7-0.3-0.2-0.1-0.5-0.2-0.7-0.3-0.3-0.1-0.5-0.2-0.8-0.3-0.2-0.1-0.4-0.1-0.6-0.2l-0.9-0.3c-0.2-0.1-0.4-0.1-0.5-0.2-0.3-0.1-0.6-0.2-1-0.3-0.2 0-0.3-0.1-0.5-0.1-0.3-0.1-0.7-0.2-1-0.2-0.2 0-0.3-0.1-0.5-0.1-0.3-0.1-0.7-0.1-1-0.2-0.2 0-0.4-0.1-0.6-0.1-0.3 0-0.6-0.1-0.9-0.1-0.3 0-0.5 0-0.8-0.1-0.3 0-0.5 0-0.8-0.1H672c-17.7 0-32 14.3-32 32s14.3 32 32 32h114.7L583.8 394.9c-12.5 12.5-12.5 32.8 0 45.3s32.8 12.5 45.3 0L832 237.3V352c0 17.7 14.3 32 32 32s32-14.3 32-32V160zM864 640c-17.7 0-32 14.3-32 32v114.7L629.1 583.8c-12.5-12.5-32.8-12.5-45.3 0s-12.5 32.8 0 45.3L786.7 832H672c-17.7 0-32 14.3-32 32s14.3 32 32 32h193.6c0.3 0 0.5 0 0.7-0.1 0.3 0 0.5 0 0.8-0.1 0.3 0 0.6-0.1 0.9-0.1 0.2 0 0.4 0 0.6-0.1 0.3 0 0.7-0.1 1-0.2 0.2 0 0.4-0.1 0.5-0.1 0.3-0.1 0.7-0.1 1-0.2 0.2 0 0.3-0.1 0.5-0.1 0.3-0.1 0.6-0.2 1-0.3 0.2-0.1 0.4-0.1 0.5-0.2l0.9-0.3c0.2-0.1 0.4-0.1 0.6-0.2 0.3-0.1 0.5-0.2 0.8-0.3 0.2-0.1 0.5-0.2 0.7-0.3 0.2-0.1 0.5-0.2 0.7-0.3 0.3-0.1 0.5-0.2 0.8-0.3l0.6-0.3c0.3-0.1 0.6-0.3 0.8-0.4 0.2-0.1 0.3-0.2 0.5-0.3 0.3-0.2 0.6-0.3 0.9-0.5 0.1-0.1 0.3-0.2 0.4-0.3l0.9-0.6c0.1-0.1 0.3-0.2 0.4-0.3 0.3-0.2 0.6-0.4 0.8-0.6 0.2-0.1 0.3-0.2 0.5-0.4s0.5-0.4 0.7-0.6c0.2-0.2 0.4-0.4 0.6-0.5 0.2-0.2 0.4-0.3 0.6-0.5 0.4-0.4 0.8-0.7 1.1-1.1l1.1-1.1c0.2-0.2 0.3-0.4 0.5-0.6 0.2-0.2 0.4-0.4 0.5-0.6 0.2-0.2 0.4-0.5 0.6-0.7 0.1-0.2 0.3-0.3 0.4-0.5 0.2-0.3 0.4-0.6 0.6-0.8 0.1-0.1 0.2-0.3 0.3-0.4l0.6-0.9c0.1-0.1 0.2-0.3 0.3-0.4 0.2-0.3 0.3-0.6 0.5-0.9 0.1-0.2 0.2-0.3 0.3-0.5 0.1-0.3 0.3-0.6 0.4-0.8l0.3-0.6c0.1-0.3 0.2-0.5 0.4-0.8 0.1-0.2 0.2-0.5 0.3-0.7 0.1-0.2 0.2-0.5 0.3-0.7 0.1-0.3 0.2-0.5 0.3-0.8 0.1-0.2 0.1-0.4 0.2-0.6l0.3-0.9c0.1-0.2 0.1-0.4 0.2-0.5 0.1-0.3 0.2-0.6 0.3-1 0-0.2 0.1-0.3 0.1-0.5 0.1-0.3 0.2-0.7 0.2-1 0-0.2 0.1-0.4 0.1-0.5 0.1-0.3 0.1-0.7 0.2-1 0-0.2 0.1-0.4 0.1-0.6 0-0.3 0.1-0.6 0.1-0.9 0-0.3 0-0.5 0.1-0.8 0-0.2 0-0.5 0.1-0.7V672c-0.1-17.7-14.4-32-32.1-32zM237.3 192H352c17.7 0 32-14.3 32-32s-14.3-32-32-32H158.5c-0.3 0-0.5 0-0.8 0.1-0.3 0-0.5 0-0.8 0.1-0.3 0-0.6 0.1-0.9 0.1-0.2 0-0.4 0-0.6 0.1-0.3 0-0.7 0.1-1 0.2-0.2 0-0.3 0.1-0.5 0.1-0.3 0.1-0.7 0.1-1 0.2-0.2 0-0.3 0.1-0.5 0.1-0.3 0.1-0.7 0.2-1 0.3-0.2 0.1-0.4 0.1-0.5 0.2l-0.9 0.3c-0.2 0.1-0.4 0.1-0.6 0.2-0.3 0.1-0.5 0.2-0.8 0.3-0.2 0.1-0.5 0.2-0.7 0.3-0.2 0.1-0.5 0.2-0.7 0.3-0.3 0.1-0.5 0.2-0.8 0.3l-0.6 0.3c-0.3 0.1-0.6 0.3-0.8 0.4-0.2 0.1-0.3 0.2-0.5 0.3-0.3 0.2-0.6 0.3-0.9 0.5-0.2 0.1-0.3 0.2-0.4 0.3l-0.9 0.6c-0.1 0.1-0.3 0.2-0.4 0.3-0.3 0.2-0.6 0.4-0.8 0.6-0.2 0.1-0.3 0.3-0.5 0.4-0.2 0.2-0.5 0.4-0.7 0.6-0.2 0.2-0.4 0.4-0.6 0.5-0.2 0.2-0.4 0.3-0.6 0.5-0.8 0.7-1.5 1.5-2.2 2.2-0.2 0.2-0.3 0.4-0.5 0.6-0.2 0.2-0.4 0.4-0.5 0.6-0.2 0.2-0.4 0.5-0.6 0.7-0.1 0.2-0.3 0.3-0.4 0.5-0.2 0.3-0.4 0.6-0.6 0.8-0.1 0.1-0.2 0.3-0.3 0.4l-0.6 0.9c-0.1 0.1-0.2 0.3-0.3 0.4-0.2 0.3-0.3 0.6-0.5 0.9-0.1 0.2-0.2 0.3-0.3 0.5-0.1 0.3-0.3 0.6-0.4 0.8l-0.3 0.6c-0.1 0.3-0.2 0.5-0.3 0.8-0.1 0.2-0.2 0.5-0.3 0.7-0.1 0.2-0.2 0.5-0.3 0.7-0.1 0.3-0.2 0.5-0.3 0.8-0.1 0.2-0.1 0.4-0.2 0.6l-0.3 0.9c-0.1 0.2-0.1 0.4-0.2 0.5-0.1 0.3-0.2 0.6-0.3 1 0 0.2-0.1 0.3-0.1 0.5-0.1 0.3-0.2 0.7-0.2 1 0 0.2-0.1 0.4-0.1 0.5-0.1 0.3-0.1 0.7-0.2 1 0 0.2-0.1 0.4-0.1 0.6 0 0.3-0.1 0.6-0.1 0.9 0 0.3 0 0.5-0.1 0.8 0 0.2 0 0.5-0.1 0.7V352c0 17.7 14.3 32 32 32s32-14.3 32-32V237.3l202.9 202.9c12.5 12.5 32.8 12.5 45.3 0s12.5-32.8 0-45.3L237.3 192zM440.2 583.8c-12.5-12.5-32.8-12.5-45.3 0L192 786.7V672c0-17.7-14.3-32-32-32s-32 14.3-32 32v193.6c0 0.3 0 0.5 0.1 0.7 0 0.3 0 0.5 0.1 0.8 0 0.3 0.1 0.6 0.1 0.9 0 0.2 0 0.4 0.1 0.6 0 0.3 0.1 0.7 0.2 1 0 0.2 0.1 0.4 0.1 0.5 0.1 0.3 0.1 0.7 0.2 1 0 0.2 0.1 0.3 0.1 0.5 0.1 0.3 0.2 0.6 0.3 1 0.1 0.2 0.1 0.4 0.2 0.5l0.3 0.9c0.1 0.2 0.1 0.4 0.2 0.6 0.1 0.3 0.2 0.5 0.3 0.8 0.1 0.2 0.2 0.5 0.3 0.7 0.1 0.2 0.2 0.5 0.3 0.7 0.1 0.3 0.2 0.5 0.4 0.8l0.3 0.6c0.1 0.3 0.3 0.6 0.4 0.8 0.1 0.2 0.2 0.3 0.3 0.5 0.2 0.3 0.3 0.6 0.5 0.9 0.1 0.1 0.2 0.3 0.3 0.4l0.6 0.9c0.1 0.1 0.2 0.3 0.3 0.4 0.2 0.3 0.4 0.6 0.6 0.8 0.1 0.2 0.2 0.3 0.4 0.5s0.4 0.5 0.6 0.7c0.2 0.2 0.3 0.4 0.5 0.6 0.2 0.2 0.3 0.4 0.5 0.6 0.3 0.4 0.7 0.8 1.1 1.1 0.4 0.4 0.8 0.7 1.1 1.1 0.2 0.2 0.4 0.3 0.6 0.5 0.2 0.2 0.4 0.4 0.6 0.5 0.2 0.2 0.5 0.4 0.7 0.6 0.2 0.1 0.3 0.3 0.5 0.4 0.3 0.2 0.6 0.4 0.8 0.6 0.1 0.1 0.3 0.2 0.4 0.3l0.9 0.6c0.1 0.1 0.3 0.2 0.4 0.3 0.3 0.2 0.6 0.3 0.9 0.5 0.2 0.1 0.3 0.2 0.5 0.3 0.3 0.1 0.6 0.3 0.8 0.4l0.6 0.3c0.3 0.1 0.5 0.2 0.8 0.3 0.2 0.1 0.5 0.2 0.7 0.3 0.2 0.1 0.5 0.2 0.7 0.3 0.3 0.1 0.5 0.2 0.8 0.3 0.2 0.1 0.4 0.1 0.6 0.2l0.9 0.3c0.2 0.1 0.4 0.1 0.5 0.2 0.3 0.1 0.6 0.2 1 0.3 0.2 0 0.3 0.1 0.5 0.1 0.3 0.1 0.7 0.2 1 0.2 0.2 0 0.4 0.1 0.5 0.1 0.3 0.1 0.7 0.1 1 0.2 0.2 0 0.4 0.1 0.6 0.1 0.3 0 0.6 0.1 0.9 0.1 0.3 0 0.5 0 0.8 0.1 0.2 0 0.5 0 0.7 0.1h193.6c17.7 0 32-14.3 32-32s-14.3-32-32-32H237.3l202.9-202.9c12.5-12.5 12.5-32.8 0-45.3z" p-id="19500"></path></svg>